<svg width="256" height="313" viewBox="0 0 256 313" fill="none" xmlns="http://www.w3.org/2000/svg">
<g style="mix-blend-mode:darken">
<path d="M0 278L15.7891 285.121L14.0613 267.887L0 278ZM195 298L195.88 299.214L197.59 297.975L195.857 296.769L195 298ZM120.953 3.49916C199.71 5.9915 235.518 31.0581 247.586 65.2029C259.752 99.6291 248.114 143.988 230.122 185.782C212.151 227.526 188.121 266.131 175.924 289.157C172.89 294.886 170.563 299.699 169.275 303.348C168.634 305.163 168.216 306.785 168.131 308.135C168.049 309.441 168.26 310.871 169.351 311.808C170.434 312.738 171.905 312.768 173.298 312.489C174.74 312.2 176.49 311.506 178.546 310.46C182.672 308.359 188.367 304.661 195.88 299.214L194.12 296.786C186.633 302.214 181.093 305.797 177.185 307.786C175.223 308.785 173.756 309.337 172.708 309.547C171.613 309.767 171.324 309.548 171.306 309.532C171.295 309.523 171.063 309.309 171.125 308.323C171.184 307.383 171.497 306.066 172.104 304.346C173.312 300.924 175.548 296.278 178.576 290.561C190.629 267.806 214.849 228.849 232.878 186.968C250.886 145.137 262.998 99.8083 250.414 64.2033C237.732 28.3168 200.29 3.00836 121.047 0.500659L120.953 3.49916ZM195.857 296.769C194.87 296.082 194.356 295.099 193.939 293.601C193.726 292.835 193.559 292.019 193.347 291.062C193.14 290.129 192.898 289.106 192.548 288.045C191.839 285.897 190.694 283.613 188.497 281.41C186.313 279.221 183.155 277.179 178.514 275.403C169.27 271.865 153.915 269.296 127.975 268.855C102.003 268.413 65.2993 270.102 13.2771 275.161L13.5675 278.147C65.533 273.093 102.112 271.415 127.924 271.854C153.767 272.294 168.697 274.858 177.442 278.205C181.796 279.871 184.559 281.711 186.373 283.529C188.174 285.334 189.104 287.183 189.699 288.985C190 289.898 190.216 290.803 190.418 291.712C190.615 292.598 190.808 293.539 191.049 294.406C191.541 296.174 192.315 297.959 194.143 299.231L195.857 296.769Z" fill="black"/>
</g>
</svg>
