<svg width="256" height="312" viewBox="0 0 256 312" fill="none" xmlns="http://www.w3.org/2000/svg">
<g style="mix-blend-mode:darken">
<path d="M0 277L10.5307 281.737L9.36765 270.249L0 277ZM195 297L195.587 297.81L196.727 296.983L195.571 296.179L195 297ZM120.968 1.99941C199.807 4.49431 235.887 29.6012 248.057 64.0363C260.293 98.659 248.576 143.18 230.581 184.98C212.601 226.747 188.539 265.411 176.366 288.391C173.333 294.118 171.021 298.903 169.746 302.514C169.111 304.314 168.71 305.885 168.63 307.167C168.551 308.419 168.766 309.646 169.677 310.428C170.582 311.206 171.856 311.268 173.2 310.998C174.576 310.723 176.279 310.052 178.319 309.014C182.409 306.932 188.078 303.253 195.587 297.81L194.413 296.19C186.922 301.622 181.356 305.224 177.412 307.232C175.434 308.238 173.92 308.814 172.807 309.037C171.662 309.267 171.176 309.08 170.98 308.911C170.789 308.747 170.56 308.331 170.626 307.292C170.689 306.283 171.02 304.916 171.632 303.18C172.854 299.72 175.105 295.046 178.134 289.327C190.211 266.527 214.399 227.628 232.419 185.77C250.424 143.945 262.457 98.7785 249.943 63.3699C237.363 27.7737 200.193 2.50555 121.032 0.000408802L120.968 1.99941ZM195.571 296.179C194.436 295.389 193.879 294.262 193.449 292.703C193.23 291.911 193.058 291.066 192.846 290.111C192.637 289.172 192.394 288.159 192.043 287.113C191.337 285.004 190.196 282.775 188.007 280.628C185.827 278.49 182.653 276.477 177.942 274.721C168.542 271.218 152.867 268.682 126.299 268.329C99.7092 267.976 62.1295 269.809 8.86967 275.097L9.06726 277.087C62.2898 271.803 99.7873 269.977 126.272 270.329C152.777 270.681 168.173 273.215 177.243 276.595C181.766 278.281 184.676 280.163 186.606 282.056C188.527 283.939 189.52 285.876 190.147 287.748C190.464 288.693 190.688 289.625 190.893 290.546C191.095 291.45 191.284 292.379 191.521 293.235C192 294.971 192.728 296.638 194.429 297.821L195.571 296.179Z" fill="black"/>
</g>
</svg>
